HIERARCHY
ROOT hip
{
  OFFSET 0 0 0
  CHANNELS 6 Xposition Yposition Zposition Zrotation Yrotation Xrotation
  JOINT abdomen
  {
    OFFSET 0 20.6881 -0.73152
    CHANNELS 3 Zrotation Xrotation Yrotation
    JOINT chest
    {
      OFFSET 0 11.7043 -0.48768
      CHANNELS 3 Zrotation Xrotation Yrotation
      JOINT neck
      {
        OFFSET 0 22.1894 -2.19456
        CHANNELS 3 Zrotation Xrotation Yrotation
        JOINT head
        {
          OFFSET -0.24384 7.07133 1.2192
          CHANNELS 3 Zrotation Xrotation Yrotation
          JOINT leftEye
          {
            OFFSET 4.14528 8.04674 8.04672
            CHANNELS 3 Zrotation Xrotation Yrotation
            End Site
            {
              OFFSET 1 0 0
            }
          }
          JOINT rightEye
          {
            OFFSET -3.6576 8.04674 8.04672
            CHANNELS 3 Zrotation Xrotation Yrotation
            End Site
            {
              OFFSET 1 0 0
            }
          }
        }
      }
      JOINT rCollar
      {
        OFFSET -2.68224 19.2634 -4.8768
        CHANNELS 3 Zrotation Xrotation Yrotation
        JOINT rShldr
        {
          OFFSET -8.77824 -1.95073 1.46304
          CHANNELS 3 Zrotation Xrotation Yrotation
          JOINT rForeArm
          {
            OFFSET -28.1742 -1.7115 0.48768
            CHANNELS 3 Zrotation Xrotation Yrotation
            JOINT rHand
            {
              OFFSET -22.5879 0.773209 7.07136
              CHANNELS 3 Zrotation Xrotation Yrotation
              JOINT rThumb1
              {
                OFFSET -1.2192 -0.487915 3.41376
                CHANNELS 3 Zrotation Xrotation Yrotation
                JOINT rThumb2
                {
                  OFFSET -3.37035 -0.52449 3.41376
                  CHANNELS 3 Zrotation Xrotation Yrotation
                  End Site
                  {
                    OFFSET -1.78271 -1.18214 1.43049
                  }
                }
              }
              JOINT rIndex1
              {
                OFFSET -7.75947 0.938293 5.60832
                CHANNELS 3 Zrotation Xrotation Yrotation
                JOINT rIndex2
                {
                  OFFSET -2.54057 -0.884171 1.56538
                  CHANNELS 3 Zrotation Xrotation Yrotation
                  End Site
                  {
                    OFFSET -1.62519 -0.234802 1.16502
                  }
                }
              }
              JOINT rMid1
              {
                OFFSET -8.24714 1.18213 3.41376
                CHANNELS 3 Zrotation Xrotation Yrotation
                JOINT rMid2
                {
                  OFFSET -3.10165 -0.590103 1.0647
                  CHANNELS 3 Zrotation Xrotation Yrotation
                  End Site
                  {
                    OFFSET -2.48547 -0.328903 0.83742
                  }
                }
              }
              JOINT rRing1
              {
                OFFSET -8.82822 0.546677 1.51678
                CHANNELS 3 Zrotation Xrotation Yrotation
                JOINT rRing2
                {
                  OFFSET -2.60934 -0.819778 -0.0198488
                  CHANNELS 3 Zrotation Xrotation Yrotation
                  End Site
                  {
                    OFFSET -2.33842 -0.294052 0.168128
                  }
                }
              }
              JOINT rPinky1
              {
                OFFSET -8.27202 -0.0477905 -0.4584
                CHANNELS 3 Zrotation Xrotation Yrotation
                JOINT rPinky2
                {
                  OFFSET -1.82734 -0.647385 -0.700984
                  CHANNELS 3 Zrotation Xrotation Yrotation
                  End Site
                  {
                    OFFSET -1.69225 -0.51767 -0.607171
                  }
                }
              }
            }
          }
        }
      }
      JOINT lCollar
      {
        OFFSET 2.68224 19.2634 -4.8768
        CHANNELS 3 Zrotation Xrotation Yrotation
        JOINT lShldr
        {
          OFFSET 8.77824 -1.95073 1.46304
          CHANNELS 3 Zrotation Xrotation Yrotation
          JOINT lForeArm
          {
            OFFSET 28.1742 -1.7115 0.48768
            CHANNELS 3 Zrotation Xrotation Yrotation
            JOINT lHand
            {
              OFFSET 22.5879 0.773209 7.07136
              CHANNELS 3 Zrotation Xrotation Yrotation
              JOINT lThumb1
              {
                OFFSET 1.2192 -0.487915 3.41376
                CHANNELS 3 Zrotation Xrotation Yrotation
                JOINT lThumb2
                {
                  OFFSET 3.37035 -0.52449 3.41376
                  CHANNELS 3 Zrotation Xrotation Yrotation
                  End Site
                  {
                    OFFSET 1.78271 -1.18214 1.43049
                  }
                }
              }
              JOINT lIndex1
              {
                OFFSET 7.75947 0.938293 5.60832
                CHANNELS 3 Zrotation Xrotation Yrotation
                JOINT lIndex2
                {
                  OFFSET 2.54057 -0.884171 1.56538
                  CHANNELS 3 Zrotation Xrotation Yrotation
                  End Site
                  {
                    OFFSET 1.62519 -0.234802 1.16502
                  }
                }
              }
              JOINT lMid1
              {
                OFFSET 8.24714 1.18213 3.41376
                CHANNELS 3 Zrotation Xrotation Yrotation
                JOINT lMid2
                {
                  OFFSET 3.10165 -0.590103 1.0647
                  CHANNELS 3 Zrotation Xrotation Yrotation
                  End Site
                  {
                    OFFSET 2.48547 -0.328903 0.83742
                  }
                }
              }
              JOINT lRing1
              {
                OFFSET 8.82822 0.546677 1.51678
                CHANNELS 3 Zrotation Xrotation Yrotation
                JOINT lRing2
                {
                  OFFSET 2.60934 -0.819778 -0.0198488
                  CHANNELS 3 Zrotation Xrotation Yrotation
                  End Site
                  {
                    OFFSET 2.33842 -0.294052 0.168128
                  }
                }
              }
              JOINT lPinky1
              {
                OFFSET 8.27202 -0.0477905 -0.4584
                CHANNELS 3 Zrotation Xrotation Yrotation
                JOINT lPinky2
                {
                  OFFSET 1.82734 -0.647385 -0.700984
                  CHANNELS 3 Zrotation Xrotation Yrotation
                  End Site
                  {
                    OFFSET 1.69225 -0.51767 -0.607171
                  }
                }
              }
            }
          }
        }
      }
    }
  }
  JOINT rButtock
  {
    OFFSET -8.77824 4.35084 1.2192
    CHANNELS 3 Zrotation Xrotation Yrotation
    JOINT rThigh
    {
      OFFSET 0 -1.70687 -2.19456
      CHANNELS 3 Zrotation Xrotation Yrotation
      JOINT rShin
      {
        OFFSET 0 -36.8199 0.73152
        CHANNELS 3 Zrotation Xrotation Yrotation
        JOINT rFoot
        {
          OFFSET 0.73152 -45.1104 -5.12064
          CHANNELS 3 Zrotation Xrotation Yrotation
          End Site
          {
            OFFSET -1.1221 -3.69964 12.103
          }
        }
      }
    }
  }
  JOINT lButtock
  {
    OFFSET 8.77824 4.35084 1.2192
    CHANNELS 3 Zrotation Xrotation Yrotation
    JOINT lThigh
    {
      OFFSET 0 -1.70687 -2.19456
      CHANNELS 3 Zrotation Xrotation Yrotation
      JOINT lShin
      {
        OFFSET 0 -36.8199 0.73152
        CHANNELS 3 Zrotation Xrotation Yrotation
        JOINT lFoot
        {
          OFFSET -0.73152 -45.1104 -5.12064
          CHANNELS 3 Zrotation Xrotation Yrotation
          End Site
          {
            OFFSET 1.1221 -3.69964 12.103
          }
        }
      }
    }
  }
}
MOTION
Frames:	7
Frame Time:	0.00833333
53.8653 83.594 183.589 179.546 -3.1452 -150.983 -6.09684 -27.622 -3.07665 2.62879 12.785 -1.09421 6.90921 19.8748 -5.17818 -12.2696 -38.9278 -14.4498 -0.0 0.0 0.0 -0.0 0.0 0.0 -9.40037e-17 4.88987e-14 1.13515e-13 84.6963 2.62841 -5.60644 -12.6095 -5.88547 22.7959 -0.0201572 4.05767 0.571227 -6.098e-10 1.02975e-09 4.79144e-10 -1.05258e-09 1.7824e-09 8.33544e-10 -6.0979e-10 1.02975e-09 4.79134e-10 7.73091 5.47488 0.417314 -6.09802e-10 1.02975e-09 4.79139e-10 2.90554 0.965183 0.102902 -6.09796e-10 1.02975e-09 4.79136e-10 10.2786 0.731801 0.0259123 -6.09799e-10 1.02975e-09 4.79144e-10 2.22167 -0.733487 -0.20892 -2.88067e-16 4.89026e-14 1.13221e-13 -75.642 14.7139 -0.328189 9.84334 -4.04671 -17.5079 0.108047 9.33232 -1.32342 -8.17202e-10 -1.02283e-09 1.7318e-11 -1.41127e-09 -1.7708e-09 3.64042e-11 -8.17203e-10 -1.02282e-09 1.73256e-11 -7.73091 5.47488 -0.417314 -8.17197e-10 -1.02282e-09 1.7317e-11 -2.90554 0.965183 -0.102902 -8.17206e-10 -1.02282e-09 1.73165e-11 -10.2786 0.731801 -0.0259123 -8.17198e-10 -1.02283e-09 1.73079e-11 -2.22167 -0.733487 0.20892 -2.03217e-16 0.0 -3.88251e-19 2.99461 -33.4481 9.21986 -0.00480687 12.5338 0.302593 -4.69519 -17.4771 -12.0826 2.03217e-16 0.0 3.88251e-19 -0.576202 -31.0644 -9.68318 0.0200061 8.58876 -0.106648 1.01316 -5.19221 3.60804
53.8891 83.5842 183.613 179.577 -3.1047 -150.85 -6.04445 -27.4758 -3.11324 2.6217 12.8529 -1.10176 6.87223 19.8078 -5.18749 -12.2313 -39.0685 -14.4974 -0.0 0.0 0.0 -0.0 0.0 0.0 -2.20486e-14 -7.47461e-14 8.92046e-14 84.6365 2.83514 -5.67667 -12.6677 -5.92804 22.91 -0.018273 3.85624 0.542788 -2.42838e-10 2.76136e-10 1.71231e-09 -4.12905e-10 4.78887e-10 2.96353e-09 -2.42834e-10 2.76135e-10 1.7123e-09 7.73091 5.47488 0.417314 -2.4284e-10 2.76139e-10 1.7123e-09 2.90554 0.965183 0.102902 -2.42835e-10 2.76136e-10 1.7123e-09 10.2786 0.731801 0.0259123 -2.42837e-10 2.76135e-10 1.71231e-09 2.22167 -0.733487 -0.20892 -2.22819e-14 -7.47409e-14 8.88567e-14 -75.5951 14.6842 -0.298577 9.89909 -4.08022 -17.6123 0.108617 9.3577 -1.32708 -1.184e-11 -1.36935e-09 -1.2068e-09 -2.93406e-11 -2.37193e-09 -2.08551e-09 -1.184e-11 -1.36934e-09 -1.20679e-09 -7.73091 5.47488 -0.417314 -1.18344e-11 -1.36934e-09 -1.2068e-09 -2.90554 0.965183 -0.102902 -1.18435e-11 -1.36934e-09 -1.2068e-09 -10.2786 0.731801 -0.0259123 -1.18358e-11 -1.36934e-09 -1.20681e-09 -2.22167 -0.733487 0.20892 -2.03217e-16 0.0 -3.88251e-19 3.08449 -33.6527 9.42517 -0.00596441 12.6656 0.307302 -4.77856 -17.5263 -12.2709 2.03217e-16 0.0 3.88251e-19 -0.600013 -31.2585 -9.83161 0.0202756 8.69392 -0.108693 1.03914 -5.26617 3.74058
53.9017 83.5732 183.648 179.577 -3.0505 -150.657 -6.01163 -27.4064 -3.10753 2.58883 12.8175 -1.09815 6.89509 19.8312 -5.21442 -12.2489 -39.2309 -14.5828 -0.0 0.0 0.0 -0.0 0.0 0.0 -5.26761e-14 -1.91482e-13 4.30093e-14 84.6282 2.95521 -5.84383 -12.7158 -5.96342 23.0041 -0.0166975 3.68619 0.518784 2.75802e-10 -3.32076e-10 2.3254e-09 4.85693e-10 -5.72995e-10 4.02017e-09 2.75807e-10 -3.32076e-10 2.3254e-09 7.73091 5.47488 0.417314 2.758e-10 -3.32072e-10 2.3254e-09 2.90554 0.965183 0.102902 2.75806e-10 -3.32075e-10 2.3254e-09 10.2786 0.731801 0.0259123 2.75803e-10 -3.32075e-10 2.3254e-09 2.22167 -0.733487 -0.20892 -5.28855e-14 -1.91477e-13 4.26809e-14 -75.4828 14.8241 -0.223499 9.9454 -4.10817 -17.6991 0.105795 9.23841 -1.30985 8.48301e-10 -1.36158e-09 -1.74164e-09 1.45238e-09 -2.35877e-09 -3.01568e-09 8.48299e-10 -1.36157e-09 -1.74163e-09 -7.73091 5.47488 -0.417314 8.48306e-10 -1.36157e-09 -1.74164e-09 -2.90554 0.965183 -0.102902 8.48296e-10 -1.36157e-09 -1.74164e-09 -10.2786 0.731801 -0.0259123 8.48304e-10 -1.36157e-09 -1.74165e-09 -2.22167 -0.733487 0.20892 -2.03217e-16 0.0 -3.88251e-19 3.16654 -33.9865 9.64516 -0.00625805 12.8282 0.31314 -4.88244 -17.6165 -12.4955 2.03217e-16 0.0 3.88251e-19 -0.634461 -31.5941 -9.96044 0.0209204 8.85765 -0.111764 1.06359 -5.37011 3.8501
53.9037 83.5661 183.686 179.55 -3.0383 -150.439 -5.99144 -27.3852 -3.07421 2.53697 12.7185 -1.0869 6.95913 19.9075 -5.25557 -12.3004 -39.4109 -14.6992 -0.0 0.0 0.0 -0.0 0.0 0.0 -9.01201e-14 -3.18654e-13 -2.22546e-14 84.6545 3.0384 -6.07306 -12.7616 -5.99729 23.0939 -0.0152029 3.52018 0.495358 9.20119e-10 -9.47768e-10 2.65888e-09 1.59995e-09 -1.63773e-09 4.59231e-09 9.20128e-10 -9.47769e-10 2.65887e-09 7.73091 5.47488 0.417314 9.20117e-10 -9.47765e-10 2.65887e-09 2.90554 0.965183 0.102902 9.20125e-10 -9.47767e-10 2.65887e-09 10.2786 0.731801 0.0259123 9.20121e-10 -9.47766e-10 2.65887e-09 2.22167 -0.733487 -0.20892 -9.02674e-14 -3.1865e-13 -2.25217e-14 -75.3283 15.0674 -0.119712 9.9856 -4.13254 -17.7745 0.100971 9.02596 -1.27922 1.82967e-09 -1.15059e-09 -1.97637e-09 3.14573e-09 -1.99338e-09 -3.42752e-09 1.82967e-09 -1.15058e-09 -1.97636e-09 -7.73091 5.47488 -0.417314 1.82968e-09 -1.15059e-09 -1.97637e-09 -2.90554 0.965183 -0.102902 1.82967e-09 -1.15059e-09 -1.97637e-09 -10.2786 0.731801 -0.0259123 1.82968e-09 -1.15059e-09 -1.97637e-09 -2.22167 -0.733487 0.20892 -2.03217e-16 0.0 -3.88251e-19 3.24523 -34.408 9.88366 -0.0060564 13.0171 0.319918 -5.00331 -17.7364 -12.7486 2.03217e-16 0.0 3.88251e-19 -0.682622 -32.0222 -10.0872 0.0217621 9.0616 -0.115566 1.08849 -5.49623 3.95064
53.9075 83.5602 183.725 179.551 -3.0315 -150.212 -5.98511 -27.3432 -3.03295 2.48448 12.5963 -1.07258 7.03381 19.995 -5.30034 -12.3669 -39.5916 -14.8261 -0.0 0.0 0.0 -0.0 0.0 0.0 -1.18126e-13 -4.25252e-13 -8.82561e-14 84.6911 3.09594 -6.31381 -12.8019 -6.02718 23.173 -0.0140411 3.38401 0.47615 1.44887e-09 -1.53585e-09 2.82092e-09 2.51372e-09 -2.65474e-09 4.86865e-09 1.44888e-09 -1.53585e-09 2.82092e-09 7.73091 5.47488 0.417314 1.44887e-09 -1.53585e-09 2.82093e-09 2.90554 0.965183 0.102902 1.44888e-09 -1.53585e-09 2.82092e-09 10.2786 0.731801 0.0259123 1.44887e-09 -1.53585e-09 2.82092e-09 2.22167 -0.733487 -0.20892 -1.1821e-13 -4.25249e-13 -8.84526e-14 -75.1607 15.3636 -0.00992888 10.0254 -4.15679 -17.8492 0.0950569 8.75781 -1.24061 2.66906e-09 -8.98823e-10 -2.12049e-09 4.59473e-09 -1.55723e-09 -3.68174e-09 2.66905e-09 -8.98816e-10 -2.12048e-09 -7.73091 5.47488 -0.417314 2.66906e-09 -8.98819e-10 -2.12049e-09 -2.90554 0.965183 -0.102902 2.66905e-09 -8.98818e-10 -2.12048e-09 -10.2786 0.731801 -0.0259123 2.66906e-09 -8.98818e-10 -2.12049e-09 -2.22167 -0.733487 0.20892 -2.03217e-16 0.0 -3.88251e-19 3.3126 -34.8277 10.1149 -0.00568133 13.214 0.326963 -5.12697 -17.8687 -12.9995 2.03217e-16 0.0 3.88251e-19 -0.747559 -32.4536 -10.2151 0.0227031 9.28243 -0.119714 1.1151 -5.63238 4.05456
53.9074 83.5507 183.799 179.522 -2.992 -149.825 -5.99401 -27.2112 -3.00347 2.44966 12.491 -1.05973 7.08847 20.0522 -5.33804 -12.429 -39.7562 -14.9426 -0.0 0.0 0.0 -0.0 0.0 0.0 -1.2044e-13 -4.80265e-13 -1.36664e-13 84.7136 3.13914 -6.51557 -12.8335 -6.05063 23.2352 -0.0134032 3.3035 0.464797 1.62081e-09 -2.06124e-09 2.91975e-09 2.81086e-09 -3.56345e-09 5.03788e-09 1.62082e-09 -2.06124e-09 2.91974e-09 7.73091 5.47488 0.417314 1.6208e-09 -2.06124e-09 2.91976e-09 2.90554 0.965183 0.102902 1.62081e-09 -2.06124e-09 2.91975e-09 10.2786 0.731801 0.0259123 1.62081e-09 -2.06124e-09 2.91975e-09 2.22167 -0.733487 -0.20892 -1.20495e-13 -4.80263e-13 -1.36814e-13 -75.0082 15.6617 0.0829416 10.0705 -4.18436 -17.9337 0.088835 8.47143 -1.19942 3.10324e-09 -7.68692e-10 -2.38351e-09 5.3434e-09 -1.33185e-09 -4.13901e-09 3.10323e-09 -7.68686e-10 -2.38349e-09 -7.73091 5.47488 -0.417314 3.10324e-09 -7.68689e-10 -2.3835e-09 -2.90554 0.965183 -0.102902 3.10323e-09 -7.68689e-10 -2.3835e-09 -10.2786 0.731801 -0.0259123 3.10324e-09 -7.68688e-10 -2.3835e-09 -2.22167 -0.733487 0.20892 -2.03217e-16 0.0 -3.88251e-19 3.35803 -35.1565 10.3111 -0.00543707 13.4011 0.333594 -5.23866 -17.9966 -13.2174 2.03217e-16 0.0 3.88251e-19 -0.83149 -32.7991 -10.3462 0.0236348 9.49681 -0.123821 1.14471 -5.76642 4.17424
53.8839 83.5414 183.806 179.356 -2.9442 -149.753 -6.02609 -26.9385 -2.99231 2.44027 12.4113 -1.0489 7.11368 20.0588 -5.36398 -12.4855 -39.8856 -15.04 -0.0 0.0 0.0 -0.0 0.0 0.0 -8.05694e-14 -4.67083e-13 -1.64239e-13 84.7149 3.14765 -6.65995 -12.8491 -6.06213 23.2659 -0.0135592 3.32008 0.467137 1.24508e-09 -2.6255e-09 3.04383e-09 2.162e-09 -4.53956e-09 5.25415e-09 1.24509e-09 -2.6255e-09 3.04383e-09 7.73091 5.47488 0.417314 1.24508e-09 -2.6255e-09 3.04384e-09 2.90554 0.965183 0.102902 1.24509e-09 -2.6255e-09 3.04383e-09 10.2786 0.731801 0.0259123 1.24508e-09 -2.6255e-09 3.04383e-09 2.22167 -0.733487 -0.20892 -8.06522e-14 -4.67081e-13 -1.6437e-13 -74.8728 15.9699 0.153253 10.1253 -4.21797 -18.0366 0.0819256 8.14795 -1.15295 2.98746e-09 -8.79712e-10 -2.99651e-09 5.14056e-09 -1.52426e-09 -5.19791e-09 2.98745e-09 -8.79706e-10 -2.9965e-09 -7.73091 5.47488 -0.417314 2.98746e-09 -8.79709e-10 -2.99651e-09 -2.90554 0.965183 -0.102902 2.98745e-09 -8.79709e-10 -2.99651e-09 -10.2786 0.731801 -0.0259123 2.98746e-09 -8.79709e-10 -2.99651e-09 -2.22167 -0.733487 0.20892 -2.03217e-16 0.0 -3.88251e-19 3.36328 -35.3265 10.4538 -0.00536928 13.55 0.339108 -5.33103 -18.1063 -13.392 2.03217e-16 0.0 3.88251e-19 -0.939476 -32.9925 -10.4741 0.0244264 9.67642 -0.127404 1.17785 -5.88693 4.31742
